<svg width="65" height="65" viewBox="0 0 65 65" fill="none" xmlns="http://www.w3.org/2000/svg">
<rect width="64.16" height="64.1614" rx="23" fill="white"/>
<g clip-path="url(#clip0_158_35)">
<path d="M18.0488 19.9807H22.4488L25.3968 34.7097C25.4974 35.2162 25.7729 35.6711 26.1751 35.9949C26.5773 36.3186 27.0806 36.4906 27.5968 36.4807H38.2888C38.8051 36.4906 39.3083 36.3186 39.7105 35.9949C40.1127 35.6711 40.3882 35.2162 40.4888 34.7097L42.2488 25.4807H23.5488M27.9488 41.9807C27.9488 42.5882 27.4563 43.0807 26.8488 43.0807C26.2413 43.0807 25.7488 42.5882 25.7488 41.9807C25.7488 41.3732 26.2413 40.8807 26.8488 40.8807C27.4563 40.8807 27.9488 41.3732 27.9488 41.9807ZM40.0488 41.9807C40.0488 42.5882 39.5563 43.0807 38.9488 43.0807C38.3413 43.0807 37.8488 42.5882 37.8488 41.9807C37.8488 41.3732 38.3413 40.8807 38.9488 40.8807C39.5563 40.8807 40.0488 41.3732 40.0488 41.9807Z" stroke="black" stroke-width="2.31" stroke-linecap="round" stroke-linejoin="round"/>
</g>
<defs>
<clipPath id="clip0_158_35">
<rect width="26.4" height="26.4" fill="white" transform="translate(16.9492 18.8807)"/>
</clipPath>
</defs>
</svg>
