<svg width="65" height="65" viewBox="0 0 65 65" fill="none" xmlns="http://www.w3.org/2000/svg">
<rect width="64.16" height="64.1614" rx="23" fill="white"/>
<path d="M18.4646 41.063C18.3757 41.4629 18.3778 41.8777 18.4706 42.2768C18.5634 42.6758 18.7447 43.0489 19.001 43.3685C19.2573 43.6881 19.5821 43.946 19.9515 44.1233C20.3208 44.3006 20.7253 44.3927 21.1349 44.3927H43.0229C43.4326 44.3927 43.8371 44.3006 44.2064 44.1233C44.5758 43.946 44.9006 43.6881 45.1569 43.3685C45.4132 43.0489 45.5945 42.6758 45.6873 42.2768C45.7801 41.8777 45.7822 41.4629 45.6933 41.063L42.9573 28.751C42.8222 28.1435 42.484 27.6001 41.9986 27.2106C41.5131 26.8212 40.9093 26.6088 40.2869 26.6087H23.8709C23.2485 26.6088 22.6448 26.8212 22.1593 27.2106C21.6738 27.6001 21.3357 28.1435 21.2006 28.751L18.4646 41.063Z" stroke="#121212" stroke-width="2.736" stroke-linecap="round" stroke-linejoin="round"/>
<path d="M26.6084 30.7127V23.8727C26.6084 22.4215 27.1849 21.0296 28.2111 20.0034C29.2373 18.9772 30.6291 18.4007 32.0804 18.4007C33.5317 18.4007 34.9235 18.9772 35.9497 20.0034C36.9759 21.0296 37.5524 22.4215 37.5524 23.8727V30.7127" stroke="#121212" stroke-width="2.736" stroke-linecap="round" stroke-linejoin="round"/>
</svg>
