<svg width="127" height="65" viewBox="0 0 127 65" fill="none" xmlns="http://www.w3.org/2000/svg">
<rect width="126.685" height="64.1614" rx="23" fill="#E2E2E2"/>
<path d="M30.2064 28.8533C30.142 28.2056 29.856 27.6904 29.3485 27.3078C28.8409 26.9253 28.2026 26.734 27.4337 26.734C26.892 26.734 26.4147 26.8268 26.0019 27.0124C25.5928 27.198 25.2708 27.4556 25.036 27.7851C24.8049 28.1109 24.6894 28.4821 24.6894 28.8987C24.6894 29.2056 24.7557 29.4745 24.8882 29.7056C25.0208 29.9366 25.1988 30.1355 25.4223 30.3022C25.6496 30.465 25.8996 30.6052 26.1723 30.7226C26.4488 30.84 26.7272 30.9385 27.0075 31.0181L28.2348 31.3703C28.606 31.4726 28.9772 31.6033 29.3485 31.7624C29.7197 31.9215 30.0587 32.1222 30.3655 32.3647C30.6761 32.6033 30.9242 32.8969 31.1098 33.2453C31.2992 33.59 31.3939 34.0048 31.3939 34.4897C31.3939 35.1109 31.2329 35.6696 30.911 36.1658C30.589 36.662 30.1269 37.0559 29.5246 37.3476C28.9223 37.6355 28.2007 37.7794 27.3598 37.7794C26.5682 37.7794 25.8807 37.6487 25.2973 37.3874C24.714 37.1222 24.2557 36.7567 23.9223 36.2908C23.589 35.8249 23.4015 35.2851 23.3598 34.6715H24.4507C24.4886 35.1298 24.6401 35.5181 24.9053 35.8362C25.1704 36.1544 25.5151 36.3969 25.9394 36.5635C26.3636 36.7264 26.8371 36.8078 27.3598 36.8078C27.9394 36.8078 28.4545 36.7112 28.9053 36.5181C29.3598 36.3211 29.7159 36.0484 29.9735 35.6999C30.2348 35.3476 30.3655 34.9385 30.3655 34.4726C30.3655 34.0787 30.2632 33.7491 30.0587 33.484C29.8541 33.215 29.5682 32.9897 29.2007 32.8078C28.8371 32.626 28.4147 32.465 27.9337 32.3249L26.5416 31.9158C25.6288 31.6431 24.9204 31.2662 24.4166 30.7851C23.9128 30.3041 23.661 29.6904 23.661 28.9442C23.661 28.3192 23.8276 27.77 24.161 27.2965C24.4981 26.8192 24.9526 26.448 25.5246 26.1828C26.1003 25.9139 26.7462 25.7794 27.4621 25.7794C28.1856 25.7794 28.8257 25.912 29.3825 26.1772C29.9394 26.4423 30.3807 26.8078 30.7064 27.2737C31.036 27.7359 31.2121 28.2624 31.2348 28.8533H30.2064ZM43.4905 31.7624C43.4905 32.9745 43.2746 34.0294 42.8428 34.9272C42.411 35.8211 41.8163 36.5143 41.0587 37.0067C40.3049 37.4953 39.4375 37.7397 38.4564 37.7397C37.4753 37.7397 36.606 37.4953 35.8485 37.0067C35.0947 36.5143 34.5019 35.8211 34.07 34.9272C33.642 34.0294 33.428 32.9745 33.428 31.7624C33.428 30.5503 33.642 29.4972 34.07 28.6033C34.5019 27.7056 35.0966 27.0124 35.8541 26.5237C36.6117 26.0313 37.4791 25.7851 38.4564 25.7851C39.4375 25.7851 40.3049 26.0313 41.0587 26.5237C41.8163 27.0124 42.411 27.7056 42.8428 28.6033C43.2746 29.4972 43.4905 30.5503 43.4905 31.7624ZM42.4564 31.7624C42.4564 30.7207 42.2822 29.8287 41.9337 29.0862C41.5852 28.34 41.1098 27.77 40.5075 27.376C39.9053 26.9821 39.2216 26.7851 38.4564 26.7851C37.695 26.7851 37.0132 26.9821 36.411 27.376C35.8087 27.77 35.3314 28.3381 34.9791 29.0806C34.6307 29.823 34.4564 30.7169 34.4564 31.7624C34.4564 32.8041 34.6307 33.6961 34.9791 34.4385C35.3276 35.1809 35.803 35.751 36.4053 36.1487C37.0075 36.5427 37.6913 36.7397 38.4564 36.7397C39.2216 36.7397 39.9053 36.5427 40.5075 36.1487C41.1136 35.7548 41.5909 35.1866 41.9394 34.4442C42.2878 33.698 42.4602 32.8041 42.4564 31.7624ZM46.0601 37.5806V25.9442H47.1226V36.626H52.6681V37.5806H46.0601ZM58.4692 37.5806H55.0601V25.9442H58.6737C59.7836 25.9442 60.7325 26.1753 61.5203 26.6374C62.312 27.0995 62.9181 27.7624 63.3385 28.626C63.759 29.4897 63.9692 30.5256 63.9692 31.734C63.9692 32.9537 63.7533 34.001 63.3215 34.876C62.8934 35.7472 62.2684 36.4158 61.4465 36.8817C60.6283 37.3476 59.6359 37.5806 58.4692 37.5806ZM56.1226 36.626H58.4067C59.4067 36.626 60.2438 36.4291 60.9181 36.0351C61.5923 35.6412 62.098 35.0787 62.4351 34.3476C62.7722 33.6166 62.9408 32.7453 62.9408 31.734C62.937 30.7302 62.7703 29.8666 62.4408 29.1431C62.115 28.4196 61.6302 27.8647 60.9862 27.4783C60.3461 27.0919 59.5544 26.8987 58.6112 26.8987H56.1226V36.626ZM80.5843 31.7624C80.5843 32.9745 80.3683 34.0294 79.9365 34.9272C79.5047 35.8211 78.91 36.5143 78.1524 37.0067C77.3986 37.4953 76.5312 37.7397 75.5502 37.7397C74.5691 37.7397 73.6998 37.4953 72.9422 37.0067C72.1884 36.5143 71.5956 35.8211 71.1638 34.9272C70.7358 34.0294 70.5218 32.9745 70.5218 31.7624C70.5218 30.5503 70.7358 29.4972 71.1638 28.6033C71.5956 27.7056 72.1903 27.0124 72.9479 26.5237C73.7055 26.0313 74.5729 25.7851 75.5502 25.7851C76.5312 25.7851 77.3986 26.0313 78.1524 26.5237C78.91 27.0124 79.5047 27.7056 79.9365 28.6033C80.3683 29.4972 80.5843 30.5503 80.5843 31.7624ZM79.5502 31.7624C79.5502 30.7207 79.3759 29.8287 79.0274 29.0862C78.6789 28.34 78.2036 27.77 77.6013 27.376C76.999 26.9821 76.3153 26.7851 75.5502 26.7851C74.7888 26.7851 74.107 26.9821 73.5047 27.376C72.9024 27.77 72.4252 28.3381 72.0729 29.0806C71.7244 29.823 71.5502 30.7169 71.5502 31.7624C71.5502 32.8041 71.7244 33.6961 72.0729 34.4385C72.4214 35.1809 72.8968 35.751 73.499 36.1487C74.1013 36.5427 74.785 36.7397 75.5502 36.7397C76.3153 36.7397 76.999 36.5427 77.6013 36.1487C78.2074 35.7548 78.6846 35.1866 79.0331 34.4442C79.3816 33.698 79.5539 32.8041 79.5502 31.7624ZM90.9095 25.9442H91.972V33.6487C91.972 34.4404 91.7864 35.1487 91.4152 35.7737C91.044 36.395 90.527 36.8855 89.8641 37.2453C89.205 37.6014 88.4379 37.7794 87.5629 37.7794C86.6917 37.7794 85.9247 37.5995 85.2618 37.2397C84.5989 36.8798 84.0819 36.3893 83.7107 35.7681C83.3395 35.1469 83.1539 34.4404 83.1539 33.6487V25.9442H84.2164V33.5749C84.2164 34.1923 84.3546 34.7434 84.6311 35.2283C84.9076 35.7094 85.2959 36.0881 85.7959 36.3647C86.2997 36.6412 86.8887 36.7794 87.5629 36.7794C88.2372 36.7794 88.8262 36.6412 89.33 36.3647C89.8338 36.0881 90.222 35.7094 90.4948 35.2283C90.7713 34.7434 90.9095 34.1923 90.9095 33.5749V25.9442ZM94.3556 26.8987V25.9442H102.793V26.8987H99.1056V37.5806H98.0431V26.8987H94.3556Z" fill="#989898"/>
</svg>
