<?xml version="1.0" encoding="UTF-8" standalone="no"?>
<!DOCTYPE svg PUBLIC "-//W3C//DTD SVG 1.1//EN" "http://www.w3.org/Graphics/SVG/1.1/DTD/svg11.dtd">
<svg width="100%" height="100%" viewBox="0 0 2496 743" version="1.1" xmlns="http://www.w3.org/2000/svg" xmlns:xlink="http://www.w3.org/1999/xlink" xml:space="preserve" xmlns:serif="http://www.serif.com/" style="fill-rule:evenodd;clip-rule:evenodd;stroke-linejoin:round;stroke-miterlimit:2;">
    <g transform="matrix(1,0,0,1,-396.432935,-800.430766)">
        <g transform="matrix(1,0,0,1,-39.197794,13.143638)">
            <g transform="matrix(1.958315,0,0,1.958315,-738.605086,-603.379797)">
                <path d="M695.711,767.629L695.711,770.678C703.987,770.678 710.956,778.518 710.956,795.07L710.956,994.559C710.956,1011.111 703.987,1018.951 695.711,1018.951L695.711,1022L750.157,1022L750.157,1018.951C741.881,1018.951 735.348,1011.111 735.348,994.559L735.348,795.07C735.348,778.518 741.881,770.678 750.157,770.678L832.479,770.678C849.031,770.678 859.92,783.745 868.196,816.413L871.245,816.413L859.049,767.629L695.711,767.629Z" style="fill:rgb(231,223,255);fill-rule:nonzero;"/>
                <path d="M925.255,994.559L925.255,710.134L888.667,710.134L888.667,713.183C896.943,713.183 903.912,721.024 903.912,737.575L903.912,994.559C903.912,1011.111 896.943,1018.951 888.667,1018.951L888.667,1022L940.064,1022L940.064,1018.951C931.788,1018.951 925.255,1011.111 925.255,994.559Z" style="fill:rgb(231,223,255);fill-rule:nonzero;"/>
                <path d="M1056.36,830.786C1000.172,830.786 955.309,868.245 955.309,927.918C955.309,987.59 1000.172,1025.049 1056.36,1025.049C1112.113,1025.049 1157.412,987.59 1157.412,927.918C1157.412,868.245 1112.113,830.786 1056.36,830.786ZM1080.317,1018.951C1075.09,1020.258 1069.427,1021.129 1063.765,1021.129C1028.049,1021.129 993.639,991.51 981.878,947.954C968.376,897.428 991.025,848.209 1031.969,836.884C1037.195,835.578 1042.858,834.706 1048.52,834.706C1084.237,834.706 1118.646,864.325 1130.407,907.882C1143.909,958.407 1121.695,1007.626 1080.317,1018.951Z" style="fill:rgb(231,223,255);fill-rule:nonzero;"/>
                <path d="M1272.401,830.786C1229.716,830.786 1214.471,871.294 1209.244,900.041L1209.244,833.835L1172.657,833.835L1172.657,836.884C1180.932,836.884 1187.901,844.724 1187.901,861.276L1187.901,994.559C1187.901,1011.111 1180.932,1018.951 1172.657,1018.951L1172.657,1022L1224.489,1022L1224.489,1018.951C1215.778,1018.951 1209.244,1011.111 1209.244,994.559L1209.244,927.918C1209.244,927.918 1211.858,833.835 1269.352,833.835C1295.922,833.835 1300.713,867.374 1300.713,867.374L1325.105,867.374C1325.105,867.374 1313.345,830.786 1272.401,830.786Z" style="fill:rgb(231,223,255);fill-rule:nonzero;"/>
                <path d="M1357.772,954.052C1355.595,945.776 1354.723,937.065 1354.723,927.918C1354.723,876.085 1389.133,833.835 1431.383,833.835C1457.953,833.835 1481.038,850.387 1494.976,875.214L1357.772,954.052ZM1514.141,867.374C1495.847,843.853 1464.486,830.786 1431.383,830.786C1375.631,830.786 1330.332,868.245 1330.332,927.918C1330.332,987.59 1375.631,1025.049 1431.383,1025.049C1464.486,1025.049 1495.847,1011.982 1514.576,988.461L1490.185,988.461C1476.246,1008.933 1454.904,1022 1431.383,1022C1397.409,1022 1368.662,994.995 1358.643,957.101L1514.141,867.374Z" style="fill:rgb(231,223,255);fill-rule:nonzero;"/>
                <path d="M1634.357,988.461C1634.357,988.461 1626.952,1022 1602.125,1022C1580.347,1022 1566.409,998.044 1566.409,946.211L1566.409,836.884L1637.406,836.884L1637.406,833.835L1566.409,833.835L1566.409,798.119L1529.821,798.119L1529.821,801.168C1538.532,801.168 1545.066,809.008 1545.066,825.56L1545.066,833.835L1529.821,833.835L1529.821,836.884L1545.066,836.884L1545.066,946.211C1545.066,1005.884 1569.458,1025.049 1603.867,1025.049C1645.246,1025.049 1658.749,988.461 1658.749,988.461L1634.357,988.461Z" style="fill:rgb(231,223,255);fill-rule:nonzero;"/>
                <path d="M1780.707,988.461C1780.707,988.461 1773.303,1022 1748.475,1022C1726.697,1022 1712.759,998.044 1712.759,946.211L1712.759,836.884L1783.756,836.884L1783.756,833.835L1712.759,833.835L1712.759,798.119L1676.171,798.119L1676.171,801.168C1684.883,801.168 1691.416,809.008 1691.416,825.56L1691.416,833.835L1676.171,833.835L1676.171,836.884L1691.416,836.884L1691.416,946.211C1691.416,1005.884 1715.808,1025.049 1750.218,1025.049C1791.597,1025.049 1805.099,988.461 1805.099,988.461L1780.707,988.461Z" style="fill:rgb(231,223,255);fill-rule:nonzero;"/>
                <path d="M1859.109,994.559L1859.109,833.835L1822.522,833.835L1822.522,836.884C1830.798,836.884 1837.767,844.724 1837.767,861.276L1837.767,994.559C1837.767,1011.111 1830.798,1018.951 1822.522,1018.951L1822.522,1022L1873.919,1022L1873.919,1018.951C1865.643,1018.951 1859.109,1011.111 1859.109,994.559ZM1849.962,751.949L1846.913,751.949C1846.913,768.5 1839.073,776.341 1822.522,776.341L1822.522,779.389C1839.073,779.389 1846.913,787.23 1846.913,803.346L1849.962,803.346C1849.962,787.23 1857.803,779.389 1873.919,779.389L1873.919,776.341C1857.803,776.341 1849.962,768.5 1849.962,751.949Z" style="fill:rgb(231,223,255);fill-rule:nonzero;"/>
                <path d="M1059.487,903.61L1056.438,903.61C1056.438,920.161 1048.598,928.002 1032.046,928.002L1032.046,931.05C1048.598,931.05 1056.438,938.891 1056.438,955.007L1059.487,955.007C1059.487,938.891 1067.327,931.05 1083.443,931.05L1083.443,928.002C1067.327,928.002 1059.487,920.161 1059.487,903.61Z" style="fill:rgb(231,223,255);fill-rule:nonzero;"/>
                <g transform="matrix(1,0,0,1,-219.065872,-34.213085)">
                    <path d="M1059.487,903.61L1056.438,903.61C1056.438,920.161 1048.598,928.002 1032.046,928.002L1032.046,931.05C1048.598,931.05 1056.438,938.891 1056.438,955.007L1059.487,955.007L1059.487,903.61Z" style="fill:rgb(231,223,255);fill-rule:nonzero;"/>
                </g>
                <g transform="matrix(0.510643,0,0,0.510643,188.409906,304.237031)">
                    <path d="M918.07,1175.799C974.35,1146.327 1068,1168 1068,1168L1242,1203" style="fill:none;"/>
                </g>
            </g>
            <g transform="matrix(1,0,0,1,-369.639127,-7.587834)">
                <path d="M1223.106,1160.498C1198.693,1160.719 1180.816,1164.271 1125.758,1150.864C1087.443,1141.535 1049.763,1128.544 1036.06,1124.329C960.39,1101.057 894.649,1097.426 849.64,1143.698C798.304,1196.475 785.056,1304.442 895.224,1405.925C996.596,1499.305 1163.451,1539.327 1291.852,1529.966C1533.319,1512.363 1699.875,1367.527 1699.875,1289.437C1699.875,1289.428 1702.064,1289.431 1705.841,1289.446C1705.771,1295.174 1706.41,1326.687 1663.478,1374.711C1597.868,1448.103 1462.041,1523.948 1290.852,1536.012C1163.168,1545.01 991.429,1505.502 887.153,1406.534C764.398,1290.027 798.289,1165.257 867.758,1121.327C916.257,1090.656 979.901,1099.611 1048.925,1122.168C1125.751,1147.275 1165.258,1154.973 1196.051,1155.129C1206.191,1155.18 1211.598,1154.592 1223.106,1154.527L1223.106,1160.498Z" style="fill:rgb(231,223,255);"/>
            </g>
            <g transform="matrix(0.268264,0,0,0.268264,917.405496,976.397678)">
                <g>
                    <g transform="matrix(1,0,0,1,1383.119,2057.306)">
                        <text x="0px" y="0px" style="font-family:'Inter-ExtraLight', 'Inter';font-weight:250;font-size:435.566px;fill:rgb(255,244,179);">FL</text>
                    </g>
                    <g transform="matrix(1,0,0,1,1870.812,2057.306)">
                        <text x="0px" y="0px" style="font-family:'Inter-ExtraLight', 'Inter';font-weight:250;font-size:435.566px;fill:rgb(255,244,179);">ORAL STUDIO</text>
                    </g>
                </g>
            </g>
        </g>
    </g>
</svg>
